<svg id="Layer_1" data-name="Layer 1" xmlns="http://www.w3.org/2000/svg" viewBox="0 0 1860 2000"><defs><style>.cls-1{fill:#6f4130;}.cls-2{fill:#c0370b;}.cls-3{fill:#ff782c;}.cls-4{fill:#f9b126;}.cls-5{fill:#a1b83e;}.cls-6{fill:#733f2f;}.cls-7{fill:#ffad2c;}.cls-8{fill:#723f35;}</style></defs><title>CMS Africa Logo - Color</title><path class="cls-1" d="M1780.89,1423.25c-26,24-32,46.27-50.74,65.44-12,12.24-2.83,32.86,14.26,32.13,21.19-.9,41.5-2.81,56.21-3.33a18.84,18.84,0,0,0,18.18-17.34c1.49-19.39-.56-49.05-7.08-68.92A18.94,18.94,0,0,0,1780.89,1423.25Z"/><path class="cls-2" d="M1623.24,1649.1c-49.76,183.87,72.38,161.21,124.52,11.17a18.92,18.92,0,0,0-17.91-25.08h-88.36A18.9,18.9,0,0,0,1623.24,1649.1Z"/><path class="cls-3" d="M76.66,347.63l-9.37,19.1A25.26,25.26,0,0,0,91.11,403.1l1293.56-58.34c23.26-1.05,33-30.5,14.71-44.93-147.47-116.47-448.57-32-632.33-23.71C637.14,282,159.67,226,78.44,344.55A24.66,24.66,0,0,0,76.66,347.63Z"/><path class="cls-2" d="M971.37,1347.4c.35,3.61.48,7.23.67,10.85,1.19,21.82,15.66,38.66,33.58,38.2l559.64-14.34a16.81,16.81,0,0,0,15.84-21.06c-35.24-132.34-165.7-71.43-278.83-68.53l-297.37,7.62C984.68,1300.66,969,1322.78,971.37,1347.4Z"/><path class="cls-4" d="M991.84,1494.59c-12,0-21.41,13.47-20.52,29.22,7.15,126.46,191.37,67.19,262.94,67.19,89.53,0,233.43,38.09,311.22-48.68,14.61-16.3,5.86-47.73-13.3-47.73Z"/><path class="cls-5" d="M36.6,680.38c-19.17-1.32-30.57,18.77-18.25,32,63.7,68.31,191,37.34,282.38,35.53l625-12.38,652-12.92c38.88-.77,191.22,13.62,267.34.11,13.41-2.39,13.87-21.43.57-24.35-77-16.93-245-55-305.36-61.51-177.07-19.08-375.93,7.44-554.42,11C911.67,649.28,218.92,693,36.6,680.38Z"/><path class="cls-5" d="M950.55,1708.5c-32.29,0-49.94,39.9-29.27,66.19,47.69,60.69,120.56,30.21,233.48,30.21,91.53,0,173,23.61,229.94-36.08,21.11-22.14,6.08-60.32-23.62-60.32Z"/><path class="cls-3" d="M968,1965.73c63.55,41.06,160.13,36.44,235,1.59,22.92-10.67,15.52-44.92-9.76-44.92H980.73C957.25,1922.4,948.3,1953,968,1965.73Z"/><path class="cls-1" d="M716.31,1059.19a21.5,21.5,0,0,0-21.85,22.13c3.66,127.12,366.37,80.19,439.11,81.44l322.62,5.53c110.11,1.89,107.26,1.74,162-57.9,12.52-13.64,3.07-35.68-15.44-36Z"/><path class="cls-6" d="M1003.07,175h369.07c-23.39-31.44-160.37-31.42-206.6-34.46-39.66-2.6-61.76-14.42-102.08-11.77-31.68,2.08-37.69,32.18-61.47,42.42a2,2,0,0,0-1.34,1.79v0A2.27,2.27,0,0,0,1003.07,175Z"/><path class="cls-6" d="M962.72,173.14c.69-1.49-.22-3.18-2-3.73-38.76-11.92-98.52-41.16-115.06-51.59C822.87,103.48,784.7,91.63,769,79.13c-7.67-6.09,37.6-46,25.07-59.21-36.4-38.5-243.37,9.15-289.48,13.59C326.05,50.73,359.7,59.08,235.33,175H959.42a3.56,3.56,0,0,0,3.28-1.85Z"/><path class="cls-2" d="M1537.31,539a15.86,15.86,0,0,0-14.54-4.05c-22,4.69-1.59-50.35-46.54-65.56-37.45-12.67-100.68,0-139.59,0H239c-130.23,0-193.49-38-233.42,75.89A15.37,15.37,0,0,0,20,565.75H1527c13.68,0,20.55-16.56,10.87-26.21Z"/><path class="cls-4" d="M264,847.1c-25.88-.19-27.26,38.5-1.42,39.89,90.53,4.85,192.89-1.43,276.43,7.64,34.11,3.7,65.58,13.92,97.09,27.88-15.69-7,85.56,28.14,68.88,24.31,100.47,23.06,231.28,1.74,333.84,2.51,189.43,1.43,629.9,97.31,776.67-57.05,12-12.61,3-33.49-14.43-33.62Z"/><path class="cls-7" d="M176.66,1274.62c11.45,8.85,17.28,16,17.28,21.6a69.6,69.6,0,0,0,16.42,22.46c5.18,12.74,7.77,26.78,7.77,42.33v13.82c0,20.73-1.51,31.1-4.32,31.1-4.32,3.24-10.15,5.4-17.28,6.91-17.92-1.08-26.78-4.1-26.78-8.64-4.1-4.53-6-8.85-6-13v-32.83c0-5.62,1.51-16.63,4.32-32.83a127.6,127.6,0,0,1-6.05-19.87c-4.54-2.38-8-3.46-10.37-3.46h-.86c-4.54,0-7.56,13.18-9.5,39.74q3.56,16.2,5.18,28.51a129.42,129.42,0,0,0-.87,15.55v1.73q2.59,32.07,2.6,36.28v16.42a399.63,399.63,0,0,0,4.32,60.47c0,3-.22,8.85-.87,17.28,8.42,42.54,15.12,63.92,19.87,63.92.22-10.8,4.32-24.62,12.1-41.46,1.51-2.81,3.45-8.64,6-17.28q7.45-5.19,13-5.18h7.78c9.71,0,14.68,2.59,14.68,7.77,0,10.15-2.81,25.7-8.64,46.65,0,7.78-2.59,15.77-7.77,24.19q0,12-23.33,18.14c-10.58,6.91-21.38,10.37-32,10.37-24.84,0-44.71-20.95-59.61-63.07-2.37-12.74-5-34.77-7.77-66.52v-2.59a24.21,24.21,0,0,1,.86-6.91c-1.08-5.61-1.94-14.47-2.59-26.78,5.18-51.62,7.77-82.5,7.77-92.43l8.64-54.43c2.16-4.75,5.4-13.39,9.51-25.92,13.17-9.28,25-13.82,35.41-13.82,6.27-1.51,9.51-2.37,9.51-2.59A115.24,115.24,0,0,0,176.66,1274.62Z"/><path class="cls-7" d="M562.33,1271.65c1.3,1.51,4.11,11.23,8.64,29.37a13.93,13.93,0,0,1,5.19,11.23v16.42c0,3.24.64,11.66,1.72,25a145.44,145.44,0,0,1-1.72,17.27,70.17,70.17,0,0,1,.86,12.1c0,2.16-1.08,8.21-3.46,18.14v6.91c9.72,36.72,14.69,60.26,14.69,70.84v4.32c0,6-3.24,17.06-9.5,32.83a247.25,247.25,0,0,1,1.72,25c0,24.84-6.26,38.88-19,42.33a58.62,58.62,0,0,1-9.5.86c-10.59,0-19-4.53-25.06-13.82a68.57,68.57,0,0,1-5.18-24.19c4.1-40.17,6-68.67,6-85.52v-14.69a184.43,184.43,0,0,0,2.59-27.64v-18.14h-.86q0,42.77-20.74,54.42l-10.36,2.59c-15.12,0-25.49-1.51-31.1-4.32l1.72,8.64c-.64,10.15-.86,18.58-.86,25.06,0,2.8,3.24,19,9.5,48.37a136,136,0,0,1,2.59,24.19c-4.75,12.1-11,18.14-19,18.14,0,1.52-8.64,3.67-25.92,6.91-8,0-17.28-4.53-27.64-13.82q-11.34-19.75-13-49.24c-4.54-22-6.91-41.25-6.91-57.88V1441c-1.08-17.06-1.73-26.13-1.73-27.64V1402.1c1.08-17.07,1.73-26.14,1.73-27.65V1358.9c0-7.34-.22-15.33-.86-24.19a185.77,185.77,0,0,0,2.59-27.64c0-4.11-.65-12.31-1.73-25,6.05-12.1,13.17-18.15,21.6-18.15h16.41c5.61,0,12.31,2.81,19.87,8.64,1.73.87,4.1,6.7,6.91,17.28,11.23,13.39,17.49,24.62,19,33.69,0,7.78,5,26.78,14.68,57,1.08,5.83,1.95,11.44,2.59,16.41h.87q8.75-21.71,20.73-117.49v-8.64c0-7.77,6.26-12.09,19-13a92.3,92.3,0,0,1,12.09-.87C552,1259.77,558.88,1264.74,562.33,1271.65Z"/><path class="cls-7" d="M862.69,1299.89v1.72c0,4.11-3.45,8.21-10.37,12.1-14.9,12.31-22.46,28.29-22.46,48.38,0,14.25,13.18,36.5,39.74,66.51,8.64,11.24,15.77,33.05,21.6,65.66l2.59,17.28v1.73l-4.32,22.46c0,8-1.51,14.47-4.32,19.87,0,12.52-3.24,21.81-9.5,27.64-5,6.48-8.21,12.31-9.5,17.28-7.35,2.37-12.75,5.61-16.42,9.5-3,2.38-5.61,3.46-7.77,3.46h-6.05c-6.69,7.55-15.76,11.23-27.64,11.23H804c-9.72,0-21.17-6.27-34.56-19-13.82-17.06-20.73-35-20.73-53.56v-3.46c4.75-12.74,12.53-19,23.32-19h6c7.78,0,12.74,7.77,14.69,23.32,5.18,18.36,9.72,27.65,13.82,27.65,9.29-13,13.82-21.81,13.82-26.78v-33.69c-1.73-26.14-4.53-42.77-8.64-50.11-2.81-4.75-4.75-11.45-6-19.87-7.13-7.12-16-23.11-26.79-48.38-4.1-10.15-7.12-27-8.63-50.1,0-14.9,5.83-27.86,17.27-38.88a121.79,121.79,0,0,1,8.64-13.82c3.24-3.67,14.9-7.12,35.42-10.36C852.32,1288.66,862.69,1292.33,862.69,1299.89Z"/><path class="cls-8" d="M222.91,1688c1,1,2,4.27,3.07,9.76,3.47,4.77,5.17,13.33,5.17,25.52,3.47,12.51,5.16,19.61,5.16,21.15,0,2.74.81,9.61,2.51,20.59l3.31,14.69v.32c0,6.54-.65,10.58-1.86,12.27-1.13,1.38-3.07,2.18-5.73,2.43-1.62,1.21-2.91,1.85-4,1.85l-2.74-.32a16.39,16.39,0,0,1-3.07.65c-3.39,0-5.9-8.4-7.59-25.19a69.53,69.53,0,0,1-11-2.1c-1.37,11.87-2.1,20-2.1,24.54,0,8.16-1.21,12.27-3.71,12.27-3.72.41-5.74.65-6.06.89V1807c-.24,0-.32.08-.32.32-5.25,0-7.91-2.34-7.91-7,.8-8.8,1.21-13.89,1.21-15.34a1.87,1.87,0,0,0-.33-1,204.5,204.5,0,0,0,1.86-27.61c.41,0,.81-5.49,1.21-16.55q1.45-5.58,4.6-31c.49-1.45,1-5.81,1.78-13.16q2.55-14.52,5.81-19.61c1.46-.89,4.2-1.62,8.24-2.18C215.65,1673.91,219.76,1678.59,222.91,1688ZM211,1722.1c-1.21,5.49-1.77,13.57-1.77,24.23-1.46,5.73-2.18,9.68-2.18,11.94h.32a29.06,29.06,0,0,1,5.49-.64h2.42v-.24c0-1.62-.89-9.13-2.74-22.45q0-3.27-1.21-12.84Z"/><path class="cls-8" d="M326.73,1677.5a9.19,9.19,0,0,1,2.59-.65q17.43,0,17.43,3.88a13.14,13.14,0,0,1,.33,2.58c0,2.34-3.31,4.28-10,5.81a30.78,30.78,0,0,0-5.17-1l-5.17,1.93a11.19,11.19,0,0,0-2.9-.64v1.29c.24,9,.64,13.48,1.29,13.56,4.28.08,6.46.25,6.46.65l.64-.32h6.46c4.12,0,6.14,1.53,6.14,4.52q0,5.8-2.91,5.81c-.32.73-1.86,1.53-4.52,2.58l-4.52-.32a56.08,56.08,0,0,0-7.11.65,39.23,39.23,0,0,1,1,5.16c0,2.1-.08,6-.32,11.63a67.4,67.4,0,0,1,1.61,10l-.32,1.29a5.91,5.91,0,0,1,.65,2.59v2.26a47.06,47.06,0,0,1-.33,5.81c0,.4.57,4,1.62,10.66a63.31,63.31,0,0,0-.32,6.46,45.26,45.26,0,0,1,2.26,14.85,23.17,23.17,0,0,1,1.93,8.72v1c0,3-5.57,5.09-16.79,6.13h-.32c-3.15,0-5.09-.72-5.82-2.25a44.82,44.82,0,0,1-3.55-17.77c-.08-.08-.64-4.76-1.61-13.88q-.62,0-1-9.69c0-1,.24-3.63.64-7.75a15.72,15.72,0,0,1-1.29-5.82v-3.87c0-3.88.25-6.38.65-7.43-.65-7.1-1-14.45-1-22,.4-3.79.65-6.21.65-7.1l-1-6.46c0-2,.08-4.77.32-8.4-.24-2.82-.32-5.25-.32-7.1,0-4.77,3.79-7.11,11.3-7.11,0-.16,1.61-.48,4.84-1Z"/><path class="cls-8" d="M448.23,1678.47c3.8,3.71,6.54,11.46,8.4,23.25.24,3.79.32,6.06.32,6.78-1.69,16.79-3.23,25.19-4.52,25.19q0,1.21-4.84,7.75a60.1,60.1,0,0,0-7.11,6.46l-.32.65c5.57,6.37,9,12.11,10.33,17.11,0,1.38,1.62,5.09,4.85,11,0,.81,2,7.19,6.13,19.06a23.4,23.4,0,0,1,.65,5.49v1c0,3-1.05,4.76-3.23,5.48a47.74,47.74,0,0,1-7.11,1.62c-4.76,0-8.07-2.91-10-8.72a87.54,87.54,0,0,0-6.46-13.24c-1.21-5.25-2.58-9.2-4.19-12a9.8,9.8,0,0,1-1-3.23h-.33c0,.89-.24,3.15-.64,6.78.08,2.59.32,3.88.64,3.88a14.54,14.54,0,0,0-.64,5.17v6.13a15.13,15.13,0,0,1-.32,2.91,18.17,18.17,0,0,1,1.29,6.46c0,2.42-2.67,4-8.08,4.52-4.84,0-7.67-1-8.39-2.91-3-10.09-4.52-23.82-4.52-41.34L407.54,1745l.65-5.81a58.84,58.84,0,0,1-.65-8.4v-2.9c0-2.75.08-5.73.32-9a9.57,9.57,0,0,1-.32-2.59l.65-3.87a75.27,75.27,0,0,1-.65-10c1.13-9.37,2.67-15.59,4.52-18.74.65,0,1.54-1.61,2.59-4.84,4.76-4.28,9.6-6.46,14.53-6.46.08,0,1.53-.08,4.2-.32C440.89,1672,445.89,1674.19,448.23,1678.47Zm-22,18.08a125.79,125.79,0,0,0,1.62,17.12v1.61a14.5,14.5,0,0,1-.33,2.91,40.39,40.39,0,0,1,1.3,11.63l.32,1.29c4.92-4.28,7.43-12.92,7.43-25.84,0-11.06-2.26-18.57-6.79-22.6h-.32c-1.86,0-2.91,4.11-3.23,12.27Zm3.23,74.6v.65h.32v-.65Z"/><path class="cls-8" d="M555.52,1682c0,3.47-2.26,7.27-6.78,11.3,0,.41-3.55.89-10.74,1.54-7.26-.16-11.3-2.34-12.19-6.62l-.89-5.57a17.84,17.84,0,0,1,3.15-6.46,47.88,47.88,0,0,1,14.86-2.26C551.33,1674,555.52,1676.61,555.52,1682Zm-15.82,24.54c6.7,0,10.58,2.83,11.63,8.4a49.77,49.77,0,0,1,1.61,10.33,14.52,14.52,0,0,1-1,3.56,7.83,7.83,0,0,1,1,4.19v1.62a18.32,18.32,0,0,1-1.29,6.78l.32,1.62V1745c0,1.54-.32,5.25-1,11.31a61.6,61.6,0,0,0,1,8.72c-.81,6.21-1.37,9.36-1.61,9.36l2.58,25.84v1.61c0,2-2.18,3.31-6.46,3.88a21.08,21.08,0,0,1-9,1.61h-1.62c-3.63,0-5.73-1.21-6.45-3.55-1.54-1-2.27-4-2.27-8.72l-1.93-25.51c0-1.46.24-5,.64-10.66l-.64-12.27c.4-5.89,1.21-13.32,2.26-22.28.24-3,.32-6.22.32-9.69v-2.91q0-2.55,5.81-4.84a18.29,18.29,0,0,1,3.88-.33Z"/><path class="cls-8" d="M649.17,1676.21c.24,0,.32-.08.32-.33a10.31,10.31,0,0,1,6.46,2.59c2.5,0,4.28,1.37,5.17,4.2,1.69.64,3,2.5,3.87,5.49q2.91,6,2.91,9.68v1.3a11.69,11.69,0,0,1-1,3.55l.65,1.29c-.25,2.67-.33,4.2-.33,4.52.65,6.86,1,10.58,1.3,11.3l-.33.65a2.39,2.39,0,0,1,.33,1.29l-.33.65c0,.24.08.32.33.32,0,5.41-3,8.07-9,8.07a3.5,3.5,0,0,1-1.93.33c-5.17-1.21-7.76-3-7.76-5.17a11.08,11.08,0,0,1-1.61-6.14,1.91,1.91,0,0,0,.32-1c0-.25-.08-.33-.32-.33l.32-1.61v-.33a75.83,75.83,0,0,0-1-9.36c.25-3.8.33-6.94.33-9.37-.41-2.82-1-4.19-1.94-4.19L643,1705.27l.65,4.85a56.27,56.27,0,0,0-2.58,16.14,100.81,100.81,0,0,0-1.94,11.31h.32a53.11,53.11,0,0,0-1,10.33h-.32c0,.24.08.32.32.32a36.67,36.67,0,0,1-.64,4.85c0,.24.08.32.32.32l-.32,1.62v2.9a23.94,23.94,0,0,0,.64,6.78h-.32c.24,0,.4,1.7.64,5.17-.24,2.18-.32,3.47-.32,3.88,0,.72.73,2.74,2.26,6.13,0,3.23.33,4.84,1,4.84,3-3.47,4.52-6.53,4.52-9a45.32,45.32,0,0,0,.65-8.39,40.59,40.59,0,0,0-1.29-10v-.32c0-3,4.52-5.08,13.56-6.46h1.94l.64.33v-.33c3.64,1,5.49,2.91,5.49,5.49a33.54,33.54,0,0,0,1.62,8.4v1.94a2.38,2.38,0,0,1-.32,1.29,9.59,9.59,0,0,1,1.29,3.55v.32l-.33,1.94.65,1.62-.32,1.29.32,4.52c0,3.63-1.7,8.23-5.17,13.89l-6.46,3.23c0,.88-1.37,1.93-4.19,3.23-.41,1.53-4.12,2.66-11.31,3.22,0,.25-1.29.57-3.87,1h-1.62c-3.47,0-6.46-1.85-9-5.49-2.58,0-5.73-9.68-9.36-29.06a147.1,147.1,0,0,1-1.62-22.61v-7.42l.32-2.27h-.32a1.91,1.91,0,0,0,.32-1c0-5,.89-12.11,2.59-21.32a2.39,2.39,0,0,1-.33-1.29c0-.24.09-.32.33-.32,0-.25-.08-.33-.33-.33,1.78-12.35,4.12-21.07,7.11-26.15q5.92-9,10.66-10.66a40.06,40.06,0,0,1,10.65-1.62Z"/><path class="cls-8" d="M761.47,1679.11c3.63,0,7.75,4.61,12.27,13.89,0,2.18,1,4.92,3.23,8.07a75.7,75.7,0,0,0,2.26,9.37,26.36,26.36,0,0,1,1.61,7.1,4.24,4.24,0,0,1-.64,1.94c.88,0,1.61,3.31,2.26,10a48.11,48.11,0,0,1,2.58,15.18,29.48,29.48,0,0,1,1.29,6.78l-1,5.82a17.39,17.39,0,0,1,1.3,4.52A24.17,24.17,0,0,1,786,1765a10.71,10.71,0,0,1,1,4.19c-.24,2.18-.32,3.48-.32,3.88.64,0,1.29,1.94,1.93,5.81l-.32.65v.32c.65,8.8,1,13.48,1,14.21v1.61c0,3.24-.89,4.85-2.58,4.85a15.57,15.57,0,0,1-7.43,1.61c-5.09,0-8.16-1-9-3.22a77.57,77.57,0,0,1-8.08-30c-.24-.65-2.58-1.05-7.1-1.29h-1.94c-.24,0-.57.4-1,1.29l.32.65v1.93a21.5,21.5,0,0,1-1,5.17c.49,3.23.81,4.85,1,4.85a28.66,28.66,0,0,1-2.9,7.1c0,4-.73,6.38-2.26,7.1-1.7,1.3-3,1.94-3.88,1.94-6,0-9.69-2.5-11-7.42v-3.88a139.91,139.91,0,0,1,2.26-22.28c0-1.21-.08-4-.32-8.08,1.69-9.36,4.2-24.78,7.43-46.18,2.82-11.87,4.2-19.13,4.2-21.63.88-2.18,3-3.88,6.13-5.17.73-2.59,3.8-3.88,9-3.88Zm-3.56,36.82c-1,9.53-2.34,18.16-3.87,25.83v.65a48.91,48.91,0,0,0,.32,5.81,44.44,44.44,0,0,0-1,8.4,46.25,46.25,0,0,0,4.85.32h2.9v-.32c0-1-.24-3.47-.64-7.11a47.34,47.34,0,0,0,1-8.39v-1.62a99.35,99.35,0,0,0-3.23-23.57Z"/></svg>